0
SECTION
2
HEADER
9
$INSUNITS
70
4
9
$ACADVER
1
AC1014
9
$HANDSEED
5
FFFF
0
ENDSEC
0
SECTION
2
TABLES
0
TABLE
2
VPORT
5
8
100
AcDbSymbolTable
0
ENDTAB
0
TABLE
2
LTYPE
5
5
100
AcDbSymbolTable
0
LTYPE
5
14
100
AcDbSymbolTableRecord
100
AcDbLinetypeTableRecord
2
BYBLOCK
70
0
0
LTYPE
5
15
100
AcDbSymbolTableRecord
100
AcDbLinetypeTableRecord
2
BYLAYER
70
0
0
ENDTAB
0
TABLE
2
LAYER
5
2
100
AcDbSymbolTable
70
2
0
LAYER
5
50
100
AcDbSymbolTableRecord
100
AcDbLayerTableRecord
2
0
70
0
6
CONTINUOUS
0
ENDTAB
0
TABLE
2
STYLE
5
3
100
AcDbSymbolTable
70
1
0
STYLE
5
11
100
AcDbSymbolTableRecord
100
AcDbTextStyleTableRecord
2
STANDARD
70
0
0
ENDTAB
0
TABLE
2
VIEW
5
6
100
AcDbSymbolTable
70
0
0
ENDTAB
0
TABLE
2
UCS
5
7
100
AcDbSymbolTable
70
0
0
ENDTAB
0
TABLE
2
APPID
5
9
100
AcDbSymbolTable
70
2
0
APPID
5
12
100
AcDbSymbolTableRecord
100
AcDbRegAppTableRecord
2
ACAD
70
0
0
ENDTAB
0
TABLE
2
DIMSTYLE
5
A
100
AcDbSymbolTable
70
1
0
ENDTAB
0
TABLE
2
BLOCK_RECORD
5
1
100
AcDbSymbolTable
70
1
0
BLOCK_RECORD
5
1F
100
AcDbSymbolTableRecord
100
AcDbBlockTableRecord
2
*MODEL_SPACE
0
BLOCK_RECORD
5
1B
100
AcDbSymbolTableRecord
100
AcDbBlockTableRecord
2
*PAPER_SPACE
0
ENDTAB
0
ENDSEC
0
SECTION
2
BLOCKS
0
BLOCK
5
20
100
AcDbEntity
100
AcDbBlockBegin
2
*MODEL_SPACE
0
ENDBLK
5
21
100
AcDbEntity
100
AcDbBlockEnd
0
BLOCK
5
1C
100
AcDbEntity
100
AcDbBlockBegin
2
*PAPER_SPACE
0
ENDBLK
5
1D
100
AcDbEntity
100
AcDbBlockEnd
0
ENDSEC
0
SECTION
2
ENTITIES
0
LWPOLYLINE
5
100
100
AcDbEntity
8
0
100
AcDbPolyline
90
56
70
1
43
0.0
10
128.00049693652107
20
-58.675002233113929
10
134.10245941113254
20
-58.675002352774342
42
-0.41298214721470966
10
134.6024549784633
20
-59.172899296771313
10
134.6719795573467
20
-75.702169984121184
42
0.41298194827267859
10
135.17197478470476
20
-76.200066928056444
10
139.26249823399337
20
-76.200069789098706
42
-0.41421356237308726
10
140.26249753456136
20
-77.200070488530258
10
140.26249683510312
20
-78.200108257847987
42
0.41421376723194669
10
141.26249683510287
20
-79.200108957279824
10
194.26249683510238
20
-79.200108957279795
42
0.4142133575142678
10
195.26249683510216
20
-78.200109656711618
10
195.26249683510216
20
2.9734035074776739
42
0.41421335751427046
10
194.26249683510238
20
3.9734028080458645
10
141.26249683510287
20
3.9734028080458668
42
0.41421376723194409
10
140.26249683510312
20
2.9734021086140467
10
140.26249753456136
20
1.9733643392963147
42
-0.41421356237308982
10
139.2624982339934
20
0.97336363986474783
10
56.000000509936555
20
0.97336363986460051
42
-0.41421356237308982
10
55.000001209368605
20
1.9733643392961675
10
55.000001908826839
20
2.9734021086138993
42
0.41421376723194669
10
54.000001908827059
20
3.9734028080457104
10
1.0000019088275656
20
3.9734028080454999
42
0.41421335751466409
10
2.4969313675195096e-16
20
2.9734035074773146
10
-6.6613381477509392e-15
20
-78.200109656711277
42
0.41421335751466404
10
1.0000019088275636
20
-79.200108957279426
10
54.000001908827059
20
-79.200108957279667
42
0.41421376723194409
10
55.000001908826839
20
-78.200108257847845
10
55.000001209368598
20
-77.200070488530116
42
-0.41421356237308982
10
56.000000509936555
20
-76.200069789098535
10
63.076698690358704
20
-76.200064839430709
42
0.41645524883625101
10
63.576683716876339
20
-75.696240764042784
10
63.447812294173943
20
-58.84672284747181
42
-0.4149528782740648
10
63.945235330152855
20
-58.342905337726506
10
69.931616617027714
20
-58.312226643319029
42
-0.41375573302631441
10
70.578389107110652
20
-58.951403721521196
10
70.690429481751551
20
-75.703394164978221
42
0.41225602210429974
10
71.190418299179342
20
-76.200050148360603
10
86.843252244417229
20
-76.200050148360603
42
0.41587019934454517
10
87.343244255893282
20
-75.697223764551552
10
87.249862431487969
20
-59.177823310651547
42
-0.41587018960946504
10
87.749854426379272
20
-58.674996926827788
10
93.519253673233862
20
-58.674996735291131
42
-0.41429539678826449
10
94.019253670322897
20
-59.175136414732982
10
94.014637327709423
20
-75.699910468918802
42
0.41429538706402069
10
94.51463730819907
20
-76.200050148360646
10
103.12069408125976
20
-76.200050148360674
42
0.41414613190914784
10
103.62069406800327
20
-75.700165262111426
10
103.62449863954899
20
-59.174895278843863
42
-0.4141461549188884
10
104.12449866557978
20
-58.675010392589293
10
110.12450070904109
20
-58.675010863971799
42
-0.41320179452295464
10
110.624497684557
20
-59.173283093302828
10
110.68161292268314
20
-75.701777918993059
42
0.41320181751839041
10
111.1816099375195
20
-76.200050148360674
10
127.05286365249091
20
-76.200050148360674
42
0.41514211141787899
10
127.552861141706
20
-75.698465538980543
10
127.50049943770858
20
-59.176586842285744
42
-0.41514211716532817
0
LWPOLYLINE
5
101
100
AcDbEntity
8
0
100
AcDbPolyline
90
8
70
1
43
0.0
10
141.13749999999999
20
-59.675000000000004
42
0.41421356237309509
10
140.63749999999999
20
-60.174999999999997
10
140.63749999999999
20
-73.174999999999997
42
0.41421356237309509
10
141.13749999999999
20
-73.674999999999997
10
154.13749999999999
20
-73.674999999999997
42
0.41421356237309509
10
154.63749999999999
20
-73.174999999999997
10
154.63750000000002
20
-60.174999999999997
42
0.41421356237309509
10
154.13749999999999
20
-59.675000000000004
0
LWPOLYLINE
5
102
100
AcDbEntity
8
0
100
AcDbPolyline
90
8
70
1
43
0.0
10
178.73750000000001
20
-60.174999999999997
10
178.73750000000001
20
-73.174999999999997
42
0.41421356237309509
10
179.23750000000001
20
-73.674999999999997
10
192.23750000000001
20
-73.674999999999997
42
0.41421356237309509
10
192.73750000000004
20
-73.174999999999997
10
192.73750000000004
20
-60.174999999999997
42
0.41421356237309509
10
192.23750000000001
20
-59.675000000000004
10
179.23750000000001
20
-59.675000000000004
42
0.41421356237309509
0
LWPOLYLINE
5
103
100
AcDbEntity
8
0
100
AcDbPolyline
90
8
70
1
43
0.0
10
72.081249999999997
20
-59.675000000000004
42
0.41421356237309509
10
71.581249999999997
20
-60.174999999999997
10
71.581249999999997
20
-73.174999999999997
42
0.41421356237309509
10
72.081249999999997
20
-73.674999999999997
10
85.081249999999997
20
-73.674999999999997
42
0.41421356237309509
10
85.581250000000011
20
-73.174999999999997
10
85.581250000000011
20
-60.174999999999997
42
0.41421356237309509
10
85.081249999999997
20
-59.675000000000004
0
LWPOLYLINE
5
104
100
AcDbEntity
8
0
100
AcDbPolyline
90
8
70
1
43
0.0
10
112.0625
20
-60.174999999999997
10
112.0625
20
-73.174999999999997
42
0.41421356237309509
10
112.56250000000001
20
-73.674999999999997
10
125.5625
20
-73.674999999999997
42
0.41421356237309509
10
126.06250000000001
20
-73.174999999999997
10
126.06250000000001
20
-60.174999999999997
42
0.41421356237309509
10
125.5625
20
-59.675000000000004
10
112.56250000000001
20
-59.675000000000004
42
0.41421356237309509
0
LWPOLYLINE
5
105
100
AcDbEntity
8
0
100
AcDbPolyline
90
8
70
1
43
0.0
10
54.125000000000007
20
-73.674999999999997
42
0.41421356237309509
10
54.625
20
-73.174999999999997
10
54.625
20
-60.174999999999997
42
0.41421356237309509
10
54.125000000000007
20
-59.675000000000004
10
41.125
20
-59.675000000000004
42
0.41421356237309509
10
40.625
20
-60.174999999999997
10
40.625
20
-73.174999999999997
42
0.41421356237309509
10
41.125
20
-73.674999999999997
0
LWPOLYLINE
5
106
100
AcDbEntity
8
0
100
AcDbPolyline
90
8
70
1
43
0.0
10
64.9375
20
-21.575000000000003
10
77.9375
20
-21.575000000000003
42
-0.41421356237309509
10
78.4375
20
-22.074999999999999
10
78.4375
20
-35.075000000000003
42
-0.41421356237309509
10
77.9375
20
-35.575000000000003
10
64.9375
20
-35.575000000000003
42
-0.41421356237309509
10
64.4375
20
-35.075000000000003
10
64.4375
20
-22.074999999999999
42
-0.41421356237309509
0
LWPOLYLINE
5
107
100
AcDbEntity
8
0
100
AcDbPolyline
90
8
70
1
43
0.0
10
92.224999999999994
20
-16.525000000000002
42
0.41421356237309509
10
92.725000000000009
20
-16.024999999999999
10
92.725000000000009
20
-3.0249999999999999
42
0.41421356237309509
10
92.224999999999994
20
-2.5249999999999999
10
79.224999999999994
20
-2.5249999999999999
42
0.41421356237309509
10
78.724999999999994
20
-3.0249999999999999
10
78.724999999999994
20
-16.024999999999999
42
0.41421356237309509
10
79.224999999999994
20
-16.524999999999999
0
LWPOLYLINE
5
108
100
AcDbEntity
8
0
100
AcDbPolyline
90
8
70
1
43
0.0
10
22.074999999999999
20
-2.5249999999999999
42
0.41421356237309509
10
21.575000000000003
20
-3.0249999999999999
10
21.575000000000003
20
-16.024999999999999
42
0.41421356237309509
10
22.074999999999999
20
-16.525000000000002
10
35.075000000000003
20
-16.525000000000002
42
0.41421356237309509
10
35.575000000000003
20
-16.024999999999999
10
35.575000000000003
20
-3.0249999999999999
42
0.41421356237309509
10
35.075000000000003
20
-2.5249999999999999
0
LWPOLYLINE
5
109
100
AcDbEntity
8
0
100
AcDbPolyline
90
8
70
1
43
0.0
10
179.23750000000001
20
-35.575000000000003
10
192.23750000000001
20
-35.575000000000003
42
0.41421356237309509
10
192.73750000000004
20
-35.075000000000003
10
192.73750000000004
20
-22.074999999999999
42
0.41421356237309509
10
192.23750000000001
20
-21.575000000000003
10
179.23750000000001
20
-21.575000000000003
42
0.41421356237309509
10
178.73750000000001
20
-22.074999999999999
10
178.73750000000001
20
-35.075000000000003
42
0.41421356237309509
0
LWPOLYLINE
5
110
100
AcDbEntity
8
0
100
AcDbPolyline
90
8
70
1
43
0.0
10
60.174999999999997
20
-2.5249999999999999
10
73.174999999999997
20
-2.5250000000000017
42
-0.41421356237309509
10
73.674999999999997
20
-3.0249999999999999
10
73.674999999999997
20
-16.024999999999999
42
-0.41421356237309509
10
73.174999999999997
20
-16.524999999999999
10
60.174999999999997
20
-16.524999999999999
42
-0.41421356237309509
10
59.675000000000004
20
-16.024999999999999
10
59.675000000000004
20
-3.0249999999999999
42
-0.41421356237309509
0
LWPOLYLINE
5
111
100
AcDbEntity
8
0
100
AcDbPolyline
90
8
70
1
43
0.0
10
55.412500000000009
20
-40.625
10
68.412499999999994
20
-40.625
42
-0.41421356237309509
10
68.912499999999994
20
-41.125
10
68.912499999999994
20
-54.125000000000007
42
-0.41421356237309509
10
68.412499999999994
20
-54.625
10
55.412500000000009
20
-54.625
42
-0.41421356237309509
10
54.912500000000009
20
-54.125000000000007
10
54.912500000000009
20
-41.125
42
-0.41421356237309509
0
LWPOLYLINE
5
112
100
AcDbEntity
8
0
100
AcDbPolyline
90
8
70
1
43
0.0
10
174.47500000000002
20
-40.625
10
187.47499999999999
20
-40.624999999999993
42
-0.41421356237309509
10
187.97499999999999
20
-41.125
10
187.97499999999999
20
-54.125000000000007
42
-0.41421356237309509
10
187.47499999999999
20
-54.625
10
174.47500000000002
20
-54.625000000000014
42
-0.41421356237309509
10
173.97500000000002
20
-54.125000000000007
10
173.97500000000002
20
-41.125
42
-0.41421356237309509
0
LWPOLYLINE
5
113
100
AcDbEntity
8
0
100
AcDbPolyline
90
8
70
1
43
0.0
10
145.11250000000001
20
-41.125
42
0.41421356237309509
10
144.61250000000001
20
-40.625
10
131.61250000000001
20
-40.625
42
0.41421356237309509
10
131.11250000000001
20
-41.125
10
131.11250000000001
20
-54.125000000000007
42
0.41421356237309509
10
131.61250000000001
20
-54.625
10
144.61250000000001
20
-54.625
42
0.41421356237309509
10
145.11250000000001
20
-54.125000000000007
0
LWPOLYLINE
5
114
100
AcDbEntity
8
0
100
AcDbPolyline
90
8
70
1
43
0.0
10
150.16249999999999
20
-54.125000000000007
42
0.41421356237309509
10
150.66249999999999
20
-54.625
10
163.66250000000002
20
-54.625
42
0.41421356237309509
10
164.16250000000002
20
-54.125000000000007
10
164.16250000000002
20
-41.125
42
0.41421356237309509
10
163.66250000000002
20
-40.625
10
150.66249999999999
20
-40.625
42
0.41421356237309509
10
150.16249999999999
20
-41.125
0
LWPOLYLINE
5
115
100
AcDbEntity
8
0
100
AcDbPolyline
90
8
70
1
43
0.0
10
112.0625
20
-54.125000000000007
42
0.41421356237309509
10
112.56250000000001
20
-54.625
10
125.5625
20
-54.625
42
0.41421356237309509
10
126.06250000000001
20
-54.125000000000007
10
126.06250000000001
20
-41.125
42
0.41421356237309509
10
125.5625
20
-40.625
10
112.56250000000001
20
-40.625
42
0.41421356237309509
10
112.0625
20
-41.125
0
LWPOLYLINE
5
116
100
AcDbEntity
8
0
100
AcDbPolyline
90
8
70
1
43
0.0
10
39.837499999999999
20
-35.575000000000003
42
0.41421356237309509
10
40.337500000000006
20
-35.075000000000003
10
40.337500000000006
20
-22.074999999999999
42
0.41421356237309509
10
39.837499999999999
20
-21.575000000000003
10
26.837499999999999
20
-21.575000000000003
42
0.41421356237309509
10
26.337499999999999
20
-22.074999999999999
10
26.337499999999999
20
-35.075000000000003
42
0.41421356237309509
10
26.837499999999999
20
-35.575000000000003
0
LWPOLYLINE
5
117
100
AcDbEntity
8
0
100
AcDbPolyline
90
8
70
1
43
0.0
10
16.524999999999999
20
-60.174999999999997
10
16.524999999999999
20
-73.174999999999997
42
-0.41421356237309509
10
16.024999999999999
20
-73.674999999999997
10
3.0249999999999999
20
-73.674999999999997
42
-0.41421356237309509
10
2.5249999999999999
20
-73.174999999999997
10
2.5250000000000017
20
-60.174999999999997
42
-0.41421356237309509
10
3.0249999999999999
20
-59.675000000000004
10
16.024999999999999
20
-59.675000000000004
42
-0.41421356237309509
0
LWPOLYLINE
5
118
100
AcDbEntity
8
0
100
AcDbPolyline
90
8
70
1
43
0.0
10
176.85624999999999
20
-2.5249999999999999
42
0.41421356237309509
10
176.35624999999999
20
-3.0249999999999999
10
176.35624999999999
20
-16.024999999999999
42
0.41421356237309509
10
176.85624999999999
20
-16.524999999999999
10
189.85624999999999
20
-16.525000000000002
42
0.41421356237309509
10
190.35624999999999
20
-16.024999999999999
10
190.35624999999999
20
-3.0249999999999999
42
0.41421356237309509
10
189.85624999999999
20
-2.5249999999999999
0
LWPOLYLINE
5
119
100
AcDbEntity
8
0
100
AcDbPolyline
90
8
70
1
43
0.0
10
116.82500000000002
20
-3.0249999999999999
10
116.82500000000002
20
-16.024999999999999
42
0.41421356237309509
10
117.32500000000002
20
-16.525000000000002
10
130.32499999999999
20
-16.525000000000002
42
0.41421356237309509
10
130.82499999999999
20
-16.024999999999999
10
130.82499999999999
20
-3.0249999999999999
42
0.41421356237309509
10
130.32499999999999
20
-2.5249999999999999
10
117.32500000000002
20
-2.5249999999999999
42
0.41421356237309509
0
LWPOLYLINE
5
120
100
AcDbEntity
8
0
100
AcDbPolyline
90
8
70
1
43
0.0
10
83.987499999999997
20
-21.575000000000003
10
96.987500000000011
20
-21.574999999999992
42
-0.41421356237309509
10
97.487500000000011
20
-22.074999999999999
10
97.487500000000011
20
-35.075000000000003
42
-0.41421356237309509
10
96.987500000000011
20
-35.575000000000003
10
83.987499999999997
20
-35.57500000000001
42
-0.41421356237309509
10
83.487500000000011
20
-35.075000000000003
10
83.487499999999983
20
-22.074999999999999
42
-0.41421356237309509
0
LWPOLYLINE
5
121
100
AcDbEntity
8
0
100
AcDbPolyline
90
8
70
1
43
0.0
10
155.42500000000001
20
-2.5249999999999999
42
0.41421356237309509
10
154.92500000000001
20
-3.0249999999999999
10
154.92500000000001
20
-16.024999999999999
42
0.41421356237309509
10
155.42500000000001
20
-16.524999999999999
10
168.42500000000001
20
-16.525000000000002
42
0.41421356237309509
10
168.92500000000001
20
-16.024999999999999
10
168.92500000000001
20
-3.0249999999999999
42
0.41421356237309509
10
168.42500000000001
20
-2.5249999999999999
0
LWPOLYLINE
5
122
100
AcDbEntity
8
0
100
AcDbPolyline
90
8
70
1
43
0.0
10
97.775000000000006
20
-16.024999999999999
42
0.41421356237309509
10
98.275000000000006
20
-16.525000000000002
10
111.27500000000001
20
-16.525000000000002
42
0.41421356237309509
10
111.77500000000002
20
-16.024999999999999
10
111.77500000000002
20
-3.0249999999999999
42
0.41421356237309509
10
111.27500000000001
20
-2.5249999999999999
10
98.275000000000006
20
-2.5249999999999999
42
0.41421356237309509
10
97.775000000000006
20
-3.0249999999999999
0
LWPOLYLINE
5
123
100
AcDbEntity
8
0
100
AcDbPolyline
90
8
70
1
43
0.0
10
36.362499999999997
20
-40.625
42
0.41421356237309509
10
35.862500000000004
20
-41.125
10
35.862500000000004
20
-54.125000000000007
42
0.41421356237309509
10
36.362499999999997
20
-54.625
10
49.362500000000004
20
-54.625
42
0.41421356237309509
10
49.862499999999997
20
-54.125000000000007
10
49.862499999999997
20
-41.125
42
0.41421356237309509
10
49.362500000000004
20
-40.625
0
LWPOLYLINE
5
124
100
AcDbEntity
8
0
100
AcDbPolyline
90
8
70
1
43
0.0
10
45.387500000000003
20
-35.075000000000003
42
0.41421356237309509
10
45.887500000000003
20
-35.575000000000003
10
58.88750000000001
20
-35.575000000000003
42
0.41421356237309509
10
59.387500000000003
20
-35.075000000000003
10
59.387500000000003
20
-22.074999999999999
42
0.41421356237309509
10
58.88750000000001
20
-21.575000000000003
10
45.887500000000003
20
-21.575000000000003
42
0.41421356237309509
10
45.387500000000003
20
-22.074999999999999
0
LWPOLYLINE
5
125
100
AcDbEntity
8
0
100
AcDbPolyline
90
8
70
1
43
0.0
10
154.13749999999999
20
-35.575000000000003
42
0.41421356237309509
10
154.63750000000002
20
-35.075000000000003
10
154.63750000000002
20
-22.074999999999999
42
0.41421356237309509
10
154.13749999999999
20
-21.575000000000003
10
141.13749999999999
20
-21.575000000000003
42
0.41421356237309509
10
140.63749999999999
20
-22.074999999999999
10
140.63749999999999
20
-35.075000000000003
42
0.41421356237309509
10
141.13749999999999
20
-35.575000000000003
0
LWPOLYLINE
5
126
100
AcDbEntity
8
0
100
AcDbPolyline
90
8
70
1
43
0.0
10
16.525000000000002
20
-3.0249999999999999
42
0.41421356237309509
10
16.024999999999999
20
-2.5249999999999999
10
3.0249999999999999
20
-2.5249999999999999
42
0.41421356237309509
10
2.5249999999999999
20
-3.0249999999999999
10
2.5249999999999999
20
-16.024999999999999
42
0.41421356237309509
10
3.0249999999999999
20
-16.525000000000002
10
16.024999999999999
20
-16.525000000000002
42
0.41421356237309509
10
16.524999999999999
20
-16.024999999999999
0
LWPOLYLINE
5
127
100
AcDbEntity
8
0
100
AcDbPolyline
90
8
70
1
43
0.0
10
107.01250000000002
20
-41.125
42
0.41421356237309509
10
106.51250000000002
20
-40.625
10
93.512500000000003
20
-40.625
42
0.41421356237309509
10
93.012500000000017
20
-41.125
10
93.012499999999989
20
-54.125000000000007
42
0.41421356237309509
10
93.512500000000003
20
-54.625
10
106.51250000000002
20
-54.625
42
0.41421356237309509
10
107.01250000000002
20
-54.125000000000007
0
LWPOLYLINE
5
128
100
AcDbEntity
8
0
100
AcDbPolyline
90
8
70
1
43
0.0
10
4.90625
20
-22.074999999999999
10
4.90625
20
-35.075000000000003
42
0.41421356237309509
10
5.40625
20
-35.575000000000003
10
18.40625
20
-35.575000000000003
42
0.41421356237309509
10
18.906250000000004
20
-35.075000000000003
10
18.906250000000004
20
-22.074999999999999
42
0.41421356237309509
10
18.40625
20
-21.575000000000003
10
5.40625
20
-21.575000000000003
42
0.41421356237309509
0
LWPOLYLINE
5
129
100
AcDbEntity
8
0
100
AcDbPolyline
90
8
70
1
43
0.0
10
159.6875
20
-22.074999999999999
10
159.6875
20
-35.075000000000003
42
0.41421356237309509
10
160.1875
20
-35.575000000000003
10
173.1875
20
-35.575000000000003
42
0.41421356237309509
10
173.68750000000003
20
-35.075000000000003
10
173.68750000000003
20
-22.074999999999999
42
0.41421356237309509
10
173.1875
20
-21.575000000000003
10
160.1875
20
-21.575000000000003
42
0.41421356237309509
0
LWPOLYLINE
5
130
100
AcDbEntity
8
0
100
AcDbPolyline
90
8
70
1
43
0.0
10
122.08750000000002
20
-35.575000000000003
10
135.08750000000001
20
-35.575000000000003
42
0.41421356237309509
10
135.58750000000001
20
-35.075000000000003
10
135.58750000000001
20
-22.074999999999999
42
0.41421356237309509
10
135.08750000000001
20
-21.575000000000003
10
122.08750000000002
20
-21.575000000000003
42
0.41421356237309509
10
121.58750000000001
20
-22.074999999999999
10
121.58750000000001
20
-35.075000000000003
42
0.41421356237309509
0
LWPOLYLINE
5
131
100
AcDbEntity
8
0
100
AcDbPolyline
90
8
70
1
43
0.0
10
116.03749999999999
20
-35.575000000000003
42
0.41421356237309509
10
116.53750000000001
20
-35.075000000000003
10
116.53750000000001
20
-22.074999999999999
42
0.41421356237309509
10
116.03749999999999
20
-21.575000000000003
10
103.03750000000001
20
-21.575000000000003
42
0.41421356237309509
10
102.53749999999999
20
-22.074999999999999
10
102.53749999999999
20
-35.075000000000003
42
0.41421356237309509
10
103.03750000000001
20
-35.575000000000003
0
LWPOLYLINE
5
132
100
AcDbEntity
8
0
100
AcDbPolyline
90
8
70
1
43
0.0
10
9.6687499999999993
20
-41.125
10
9.6687499999999993
20
-54.125000000000007
42
0.41421356237309509
10
10.168749999999999
20
-54.625
10
23.168749999999999
20
-54.625
42
0.41421356237309509
10
23.668749999999999
20
-54.125000000000007
10
23.668749999999999
20
-41.125
42
0.41421356237309509
10
23.168749999999999
20
-40.625
10
10.168749999999999
20
-40.625
42
0.41421356237309509
0
LWPOLYLINE
5
133
100
AcDbEntity
8
0
100
AcDbPolyline
90
8
70
1
43
0.0
10
54.625
20
-3.0249999999999999
42
0.41421356237309509
10
54.125000000000007
20
-2.5249999999999999
10
41.125
20
-2.5249999999999999
42
0.41421356237309509
10
40.625
20
-3.0249999999999999
10
40.625
20
-16.024999999999999
42
0.41421356237309509
10
41.125
20
-16.524999999999999
10
54.125000000000007
20
-16.525000000000002
42
0.41421356237309509
10
54.625
20
-16.024999999999999
0
LWPOLYLINE
5
134
100
AcDbEntity
8
0
100
AcDbPolyline
90
8
70
1
43
0.0
10
149.875
20
-3.0249999999999999
10
149.875
20
-16.024999999999999
42
-0.41421356237309509
10
149.375
20
-16.525000000000002
10
136.375
20
-16.525000000000006
42
-0.41421356237309509
10
135.875
20
-16.024999999999999
10
135.875
20
-3.0249999999999999
42
-0.41421356237309509
10
136.375
20
-2.5249999999999999
10
149.375
20
-2.5249999999999928
42
-0.41421356237309509
0
LWPOLYLINE
5
135
100
AcDbEntity
8
0
100
AcDbPolyline
90
8
70
1
43
0.0
10
73.962500000000006
20
-41.125
10
73.962500000000006
20
-54.125000000000007
42
0.41421356237309509
10
74.462500000000006
20
-54.625
10
87.46250000000002
20
-54.625
42
0.41421356237309509
10
87.962500000000006
20
-54.125000000000007
10
87.96250000000002
20
-41.125
42
0.41421356237309509
10
87.46250000000002
20
-40.625
10
74.462500000000006
20
-40.625
42
0.41421356237309509
0
LINE
5
136
100
AcDbEntity
8
0
100
AcDbLine
10
54.125000000000007
20
-59.675000000000004
30
0
11
72.081249999999997
21
-59.675000000000004
31
0
0
LINE
5
137
100
AcDbEntity
8
0
100
AcDbLine
10
-3.1586012458706795e-15
20
-37.613353074616974
30
0
11
195.26249683510216
21
-37.613353074616981
31
0
0
LINE
5
138
100
AcDbEntity
8
0
100
AcDbLine
10
97.631249371965112
20
1.0000646535857818
30
0
11
97.631249371964969
21
-76.20005014836066
31
0
0
ENDSEC
0
SECTION
2
OBJECTS
0
DICTIONARY
5
C
100
AcDbDictionary
3
ACAD_GROUP
350
D
3
ACAD_MLINESTYLE
350
17
0
DICTIONARY
5
D
100
AcDbDictionary
0
DICTIONARY
5
1A
330
C
100
AcDbDictionary
0
DICTIONARY
5
17
100
AcDbDictionary
0
ENDSEC
0
EOF
